<svg viewBox="0 0 200 50" fill="none" xmlns="http://www.w3.org/2000/svg">
<path d="M62.7965 26.5936C64.3373 26.5936 65.8439 26.8676 67.282 27.4496V26.3197C67.282 24.0598 65.9809 22.2793 63.5155 22.2793C61.8378 22.2793 60.3654 23.2038 59.7491 24.7446L56.0511 23.9228C56.9756 20.7042 60.3654 18.9922 63.6183 18.9922C68.1038 18.9922 71.2882 21.9711 71.2882 26.5251V37.4822H67.6244L67.4875 35.1196C66.3575 37.1055 64.0976 37.9958 61.872 37.9958C58.5164 37.9958 55.4005 35.9413 55.4005 32.3461C55.3663 28.3399 59.1327 26.5936 62.7965 26.5936ZM62.7623 34.8114C65.2276 34.8114 67.282 33.1336 67.282 30.634V30.2231C66.6999 29.9835 66.0494 29.778 65.433 29.6068C64.7825 29.4698 64.0976 29.4014 63.4471 29.4014C61.7008 29.4014 59.4067 30.0862 59.4067 32.1749C59.4067 33.9554 61.1187 34.8114 62.7623 34.8114Z" fill="#030B1C"/>
<path d="M75.1566 14.4725C75.1566 14.0274 75.2593 13.6508 75.499 13.2741C75.7045 12.8975 75.9784 12.6235 76.3893 12.3839C76.7659 12.1784 77.1426 12.0757 77.6219 12.0757C78.1013 12.0757 78.478 12.1784 78.8546 12.3839C79.2313 12.6235 79.5052 12.8975 79.7791 13.2741C79.9846 13.6508 80.0873 14.0274 80.0873 14.4725C80.0873 14.9177 79.9846 15.2943 79.7791 15.671C79.5394 16.0476 79.2655 16.3215 78.8546 16.527C78.478 16.7667 78.1013 16.8694 77.6219 16.8694C77.1426 16.8694 76.7659 16.7667 76.3893 16.527C76.0126 16.3215 75.7387 16.0476 75.499 15.671C75.2593 15.2943 75.1566 14.9177 75.1566 14.4725ZM75.6017 37.4481V19.4717H79.6422V37.4481H75.6017Z" fill="#030B1C"/>
<path d="M87.655 19.506L87.8262 22.4507C88.7165 20.4648 90.4285 19.2664 92.6884 19.2664C93.3048 19.2664 93.9896 19.3348 94.5717 19.5745L94.1265 23.4437C93.6129 23.2383 93.0651 23.204 92.483 23.204C89.3328 23.204 87.9974 25.5666 87.9974 28.4086V37.5167H83.957V19.506H87.655Z" fill="#030B1C"/>
<path d="M105.289 18.9924C108.85 18.9924 112.068 20.9099 113.096 24.4025L109.295 25.2927C108.576 23.6492 107.138 22.5535 105.254 22.5535C102.036 22.5535 100.324 25.7379 100.324 28.5798C100.324 31.4218 101.967 34.435 105.254 34.435C107.138 34.435 108.747 33.442 109.534 31.73L113.301 32.586C112.308 36.0101 108.747 37.996 105.254 37.996C99.9471 37.996 96.2148 33.8187 96.2148 28.6141C96.2148 23.4095 99.8101 18.9924 105.289 18.9924Z" fill="#030B1C"/>
<path d="M116.588 11.9041H120.594V21.6627C121.827 19.8821 123.812 18.9919 125.97 18.9919C130.524 18.9919 132.749 22.5529 132.749 26.7988V37.4819H128.743V27.2097C128.743 24.7786 127.75 22.5529 124.977 22.5529C122.409 22.5529 120.594 24.4704 120.594 27.0384V37.4819H116.553L116.588 11.9041Z" fill="#030B1C"/>
<path d="M143.672 26.5936C145.213 26.5936 146.719 26.8676 148.158 27.4496V26.3197C148.158 24.0598 146.856 22.2793 144.391 22.2793C142.713 22.2793 141.241 23.2038 140.625 24.7446L136.927 23.9228C137.851 20.7042 141.241 18.9922 144.494 18.9922C148.979 18.9922 152.164 21.9711 152.164 26.5251V37.4822H148.5L148.363 35.1196C147.233 37.1055 144.973 37.9958 142.747 37.9958C139.392 37.9958 136.276 35.9413 136.276 32.3461C136.242 28.3399 140.008 26.5936 143.672 26.5936ZM143.638 34.8114C146.103 34.8114 148.158 33.1336 148.158 30.634V30.2231C147.575 29.9835 146.925 29.778 146.309 29.6068C145.658 29.4698 144.973 29.4014 144.323 29.4014C142.576 29.4014 140.282 30.0862 140.282 32.1749C140.282 33.9554 141.994 34.8114 143.638 34.8114Z" fill="#030B1C"/>
<path d="M156.034 14.4725C156.034 14.0274 156.136 13.6508 156.376 13.2741C156.581 12.8975 156.855 12.6235 157.266 12.3839C157.677 12.1784 158.02 12.0757 158.499 12.0757C158.944 12.0757 159.355 12.1784 159.732 12.3839C160.142 12.6235 160.382 12.8975 160.656 13.2741C160.862 13.6508 160.964 14.0274 160.964 14.4725C160.964 14.9177 160.862 15.2943 160.656 15.671C160.416 16.0476 160.142 16.3215 159.732 16.527C159.321 16.7667 158.978 16.8694 158.499 16.8694C158.054 16.8694 157.643 16.7667 157.266 16.527C156.855 16.3215 156.616 16.0476 156.376 15.671C156.136 15.2943 156.034 14.9177 156.034 14.4725ZM156.479 37.4481V19.4717H160.519V37.4481H156.479Z" fill="#030B1C"/>
<path d="M168.496 19.506L168.633 21.9714C169.729 19.9854 171.955 18.9924 174.214 18.9924C178.768 18.9924 180.994 22.5535 180.994 26.7993V37.4824H176.954V27.2102C176.954 24.7791 175.961 22.5535 173.187 22.5535C170.619 22.5535 168.804 24.4709 168.804 27.039V37.4824H164.764V19.506H168.496Z" fill="#030B1C"/>
<path d="M187.842 32.2429C188.458 33.8522 189.896 34.7082 191.642 34.7082C193.046 34.7082 194.758 34.0577 194.758 32.4484C194.758 30.839 193.081 30.3597 191.779 30.1542L190.649 29.9488C187.671 29.4352 184.726 28.0313 184.726 24.6415C184.726 20.9435 188.013 18.9575 191.54 18.9575C194.724 18.9575 197.6 20.5668 198.491 23.6827L194.895 24.573C194.313 23.0664 193.149 22.2104 191.505 22.2104C190.204 22.2104 188.664 22.861 188.664 24.3333C188.664 25.8057 190.649 26.2508 191.814 26.4562L192.944 26.6617C195.923 27.141 198.765 28.7504 198.765 32.0375C198.765 35.9067 195.272 37.9611 191.608 37.9611C188.355 37.9611 185.205 36.3518 184.178 33.1674L187.842 32.2429Z" fill="#030B1C"/>
<path d="M39.8901 32.8581C39.8901 32.8581 40.6434 35.7686 40.8146 38.7475C40.9858 42.377 40.5065 46.3489 40.5065 46.3489C40.5065 46.3489 41.0201 46.4174 41.4652 46.0065C45.5399 42.7879 45.4029 34.0908 43.7593 29.1943C43.7251 29.1943 41.3282 31.7966 39.8901 32.8581Z" fill="url(#paint0_linear_365_1962)"/>
<path d="M25.0632 28.442C30.439 24.1277 34.4794 21.2515 34.4794 21.2515L33.5892 19.4709C33.5892 19.4709 30.1993 21.7993 26.8095 24.5386C23.4197 27.2436 18.8314 31.1813 18.8314 31.1813C18.8314 31.1813 19.4135 31.5579 19.6874 31.8661C19.9614 32.1743 20.2353 32.6536 20.2353 32.6536C20.2353 32.6536 22.7349 30.3253 25.0632 28.442Z" fill="url(#paint1_linear_365_1962)"/>
<path d="M44.5805 27.209C50.2644 20.7717 51.1889 16.6971 49.7166 14.8823C48.8948 13.8551 46.0528 13.4785 43.5533 14.2318C41.1222 14.9851 38.5883 16.5259 38.5883 16.5259L39.4101 18.1694C51.4286 11.424 49.8878 18.6488 43.1081 24.8121C43.1081 24.8121 22.2898 45.2538 13.7296 40.1177C5.16942 34.9474 14.072 16.4917 18.0439 10.6022C27.4944 -2.71739 37.972 28.5101 38.0747 28.2362C38.0747 28.2362 41.7385 24.9149 41.8412 24.8464C40.0607 21.4908 31.1239 -2.20378 19.5848 3.34322C15.784 5.19222 12.1888 11.561 12.1888 11.561C12.1888 11.561 -4.55495 39.7753 7.05266 46.2811C18.626 52.821 38.8623 33.6462 44.5805 27.209Z" fill="url(#paint2_linear_365_1962)"/>
<path d="M17.257 31.3171C13.3536 31.4541 13.3536 37.0696 17.257 37.2065C18.9006 37.2065 20.2017 35.8712 20.2017 34.2618C20.2017 32.6525 18.8664 31.3171 17.257 31.3171Z" fill="url(#paint3_linear_365_1962)"/>
<defs>
<linearGradient id="paint0_linear_365_1962" x1="42.341" y1="46.3437" x2="42.341" y2="29.1956" gradientUnits="userSpaceOnUse">
<stop stop-color="#4E4BFC"/>
<stop offset="1" stop-color="#9D6CE7"/>
</linearGradient>
<linearGradient id="paint1_linear_365_1962" x1="26.6549" y1="32.6647" x2="26.6549" y2="19.462" gradientUnits="userSpaceOnUse">
<stop stop-color="#4E4BFC"/>
<stop offset="1" stop-color="#9D6CE7"/>
</linearGradient>
<linearGradient id="paint2_linear_365_1962" x1="26.6428" y1="47.6274" x2="26.6428" y2="2.55473" gradientUnits="userSpaceOnUse">
<stop stop-color="#4E4BFC"/>
<stop offset="1" stop-color="#9D6CE7"/>
</linearGradient>
<linearGradient id="paint3_linear_365_1962" x1="17.2569" y1="37.1883" x2="17.2569" y2="31.3085" gradientUnits="userSpaceOnUse">
<stop stop-color="#4E4BFC"/>
<stop offset="1" stop-color="#9D6CE7"/>
</linearGradient>
</defs>
</svg>
